HIERARCHY
ROOT joint_Root
{
	OFFSET 0.0 0.0 0.0
	CHANNELS 6 Xposition Yposition Zposition Zrotation Xrotation Yrotation 
	JOINT Hips
	{
		OFFSET -0.726466 93.3139 -2.00062
		CHANNELS 6 Xposition Yposition Zposition Zrotation Xrotation Yrotation 
		JOINT Spine
		{
			OFFSET 15.7357 0.0 0.0
			CHANNELS 6 Xposition Yposition Zposition Zrotation Xrotation Yrotation 
			JOINT Chest
			{
				OFFSET 8.98455 -0.406207 0.0
				CHANNELS 6 Xposition Yposition Zposition Zrotation Xrotation Yrotation 
				JOINT Neck
				{
					OFFSET 16.3773 0.0 0.0
					CHANNELS 6 Xposition Yposition Zposition Zrotation Xrotation Yrotation 
					JOINT Head
					{
						OFFSET 6.45672 0.0 0.0
						CHANNELS 6 Xposition Yposition Zposition Zrotation Xrotation Yrotation 
						End Site
						{
							OFFSET 0.0 0.0 0.0
						}
					}
				}
				JOINT Shoulder_L
				{
					OFFSET 12.9942 -0.242716 4.98039
					CHANNELS 6 Xposition Yposition Zposition Zrotation Xrotation Yrotation 
					JOINT UpperArm_L
					{
						OFFSET 5.34809 0.0 0.0
						CHANNELS 6 Xposition Yposition Zposition Zrotation Xrotation Yrotation 
						JOINT LowerArm_L
						{
							OFFSET 24.3286 1.87007e-05 0.0
							CHANNELS 6 Xposition Yposition Zposition Zrotation Xrotation Yrotation 
							JOINT Hand_L
							{
								OFFSET 22.2916 0.0 0.0
								CHANNELS 6 Xposition Yposition Zposition Zrotation Xrotation Yrotation 
								End Site
								{
									OFFSET 0.0 0.0 0.0
								}
							}
						}
					}
				}
				JOINT Shoulder_R
				{
					OFFSET 12.9945 -0.242716 -4.98039
					CHANNELS 6 Xposition Yposition Zposition Zrotation Xrotation Yrotation 
					JOINT UpperArm_R
					{
						OFFSET -5.34813 0.0 0.0
						CHANNELS 6 Xposition Yposition Zposition Zrotation Xrotation Yrotation 
						JOINT LowerArm_R
						{
							OFFSET -24.3289 0.000322201 0.0
							CHANNELS 6 Xposition Yposition Zposition Zrotation Xrotation Yrotation 
							JOINT Hand_R
							{
								OFFSET -22.2915 -0.000108084 0.0
								CHANNELS 6 Xposition Yposition Zposition Zrotation Xrotation Yrotation 
								End Site
								{
									OFFSET 0.0 0.0 0.0
								}
							}
						}
					}
				}
			}
		}
		JOINT UpperLeg_L
		{
			OFFSET -2.19248 -6.46944 0.0
			CHANNELS 6 Xposition Yposition Zposition Zrotation Xrotation Yrotation 
			JOINT LowerLeg_L
			{
				OFFSET 39.0811 0.0 -1.23785e-05
				CHANNELS 6 Xposition Yposition Zposition Zrotation Xrotation Yrotation 
				JOINT Foot_L
				{
					OFFSET 40.9854 0.0 -1.26872e-05
					CHANNELS 6 Xposition Yposition Zposition Zrotation Xrotation Yrotation 
					JOINT Toes_L
					{
						OFFSET 11.7543 0.0 0.0
						CHANNELS 6 Xposition Yposition Zposition Zrotation Xrotation Yrotation 
						End Site
						{
							OFFSET 0.0 0.0 0.0
						}
					}
				}
			}
		}
		JOINT UpperLeg_R
		{
			OFFSET -2.19251 6.46944 0.0
			CHANNELS 6 Xposition Yposition Zposition Zrotation Xrotation Yrotation 
			JOINT LowerLeg_R
			{
				OFFSET -39.0811 -0.00228153 -0.0401928
				CHANNELS 6 Xposition Yposition Zposition Zrotation Xrotation Yrotation 
				JOINT Foot_R
				{
					OFFSET -40.9854 0.0 0.0
					CHANNELS 6 Xposition Yposition Zposition Zrotation Xrotation Yrotation 
					JOINT Toes_R
					{
						OFFSET -11.7543 0.0 0.0
						CHANNELS 6 Xposition Yposition Zposition Zrotation Xrotation Yrotation 
						End Site
						{
							OFFSET 0.0 0.0 0.0
						}
					}
				}
			}
		}
	}
}
MOTION
Frames:	4
Frame Time:	0.0333333
0.000000 0.000000 0.000000 0.000000 0.000000 -0.000000 -2.099700 92.012700 -1.491310 87.300200 -1.312270 3.579560 15.735700 0.000005 -0.000001 86.270000 85.350800 -85.430300 8.984550 -0.406207 -0.000000 1.518160 -0.650367 1.686520 16.377300 -0.000001 -0.000001 2.624410 -3.412370 1.690210 6.456720 -0.000001 -0.000000 0.872456 -1.564500 -4.641000 12.994200 -0.242716 4.980390 -90.162400 0.538561 -73.220900 5.348090 -0.000007 -0.000001 -63.580700 46.122100 -16.489900 24.328600 0.000019 0.000005 4.257530 8.334540 -27.183900 22.291600 -0.000001 0.000005 5.179460 5.556570 -9.020580 12.994500 -0.242716 -4.980390 87.856100 6.005020 -70.311300 -5.348130 -0.000001 -0.000004 -64.095600 38.151800 -16.349600 -24.328900 0.000322 -0.000009 2.345090 6.826370 -19.019900 -22.291500 -0.000108 -0.000004 7.704400 5.452940 -4.744840 -2.192480 -6.469440 -0.000000 -167.782000 -15.061800 -1.773470 39.081100 -0.000007 -0.000012 -0.187852 0.484073 21.209700 40.985400 -0.000006 -0.000013 -6.533820 3.880950 -63.828300 11.754300 -0.000000 0.000003 -0.000032 -0.000384 -16.592600 -2.192510 6.469440 -0.000001 175.696000 20.171900 179.494000 -39.081100 -0.002282 -0.040193 -0.041154 0.122267 19.988900 -40.985400 0.000008 0.000006 -1.919120 3.138990 -64.209700 -11.754300 -0.000006 -0.000006 -0.006675 -0.076849 -19.701300
0.000000 0.000000 0.000000 0.000000 0.000000 -0.000000 -2.098950 92.010100 -1.525650 87.297600 -1.312360 3.647310 15.735700 0.000005 -0.000001 85.986200 85.296500 -85.168800 8.984550 -0.406207 -0.000000 1.623470 -0.701889 1.643280 16.377300 -0.000001 -0.000001 2.588050 -3.216680 1.617780 6.456720 -0.000001 -0.000000 0.624625 -1.205790 -4.677530 12.994200 -0.242716 4.980390 -90.152400 0.503976 -73.177000 5.348090 -0.000007 -0.000001 -60.794700 48.956500 -17.921000 24.328600 0.000019 0.000005 4.804380 8.587510 -29.371900 22.291600 -0.000001 0.000005 4.983820 5.565640 -9.468860 12.994500 -0.242716 -4.980390 87.912000 5.836460 -70.275700 -5.348130 -0.000001 -0.000004 -62.461700 39.600000 -17.595600 -24.328900 0.000322 -0.000009 2.273880 6.002430 -20.802600 -22.291500 -0.000108 -0.000004 7.216600 5.458860 -4.959920 -2.192480 -6.469440 -0.000000 -167.761000 -15.118200 -1.760220 39.081100 -0.000007 -0.000012 -0.188208 0.483625 21.264300 40.985400 -0.000006 -0.000013 -6.513050 3.936830 -63.819400 11.754300 -0.000000 0.000003 -0.000036 -0.000421 -16.594000 -2.192510 6.469440 -0.000001 175.687000 20.180100 179.515000 -39.081100 -0.002282 -0.040193 -0.041834 0.123815 20.036700 -40.985400 0.000008 0.000006 -1.918170 3.118430 -64.208400 -11.754300 -0.000006 -0.000006 -0.006734 -0.077367 -19.722400
0.000000 0.000000 0.000000 0.000000 0.000000 -0.000000 -2.096620 92.021800 -1.615540 87.295400 -1.396270 3.684810 15.735700 0.000005 -0.000001 85.415800 85.233900 -84.605600 8.984550 -0.406207 -0.000000 1.742030 -0.803982 1.631120 16.377300 -0.000001 -0.000001 2.574360 -2.847010 1.420360 6.456720 -0.000001 -0.000000 0.329085 -0.588981 -4.765940 12.994200 -0.242716 4.980390 -90.114300 0.377899 -73.174400 5.348090 -0.000007 -0.000001 -56.280500 52.847800 -19.989100 24.328600 0.000019 0.000005 5.840920 8.923860 -33.401100 22.291600 -0.000001 0.000005 4.699360 5.582410 -10.343500 12.994500 -0.242716 -4.980390 87.957300 5.663060 -70.127300 -5.348130 -0.000001 -0.000004 -59.861000 40.373200 -19.596200 -24.328900 0.000322 -0.000009 2.328710 5.287600 -23.823700 -22.291500 -0.000108 -0.000004 7.495510 5.474530 -5.540420 -2.192480 -6.469440 -0.000000 -167.766000 -15.127000 -1.745620 39.081100 -0.000007 -0.000012 -0.187159 0.481859 21.226900 40.985400 -0.000006 -0.000013 -6.514980 3.863350 -63.755300 11.754300 -0.000000 0.000003 -0.000040 -0.000462 -16.595500 -2.192510 6.469440 -0.000001 175.720000 20.114900 179.463000 -39.081100 -0.002282 -0.040193 -0.038443 0.114465 20.045100 -40.985400 0.000008 0.000006 -1.817430 3.116420 -64.147900 -11.754300 -0.000006 -0.000006 -0.006766 -0.077637 -19.733500
0.000000 0.000000 0.000000 0.000000 0.000000 -0.000000 -2.098910 92.022400 -1.709130 87.278300 -1.642390 3.723260 15.735700 0.000005 -0.000001 84.808000 85.188300 -83.981200 8.984550 -0.406207 -0.000000 1.825330 -0.913183 1.666740 16.377300 -0.000001 -0.000001 2.663890 -2.395830 1.259700 6.456720 -0.000001 -0.000000 0.060147 0.217464 -5.182290 12.994200 -0.242716 4.980390 -90.044900 0.147756 -73.092300 5.348090 -0.000007 -0.000001 -50.405800 56.998200 -22.434300 24.328600 0.000019 0.000005 6.570660 8.217700 -38.865400 22.291600 -0.000001 0.000005 5.151820 5.608790 -11.878000 12.994500 -0.242716 -4.980390 88.017400 5.403380 -69.815800 -5.348130 -0.000001 -0.000004 -56.936300 39.554000 -22.117400 -24.328900 0.000322 -0.000009 2.037830 3.886220 -27.721800 -22.291500 -0.000108 -0.000004 7.790080 5.479940 -5.745710 -2.192480 -6.469440 -0.000000 -167.742000 -15.230100 -1.732760 39.081100 -0.000007 -0.000012 -0.185717 0.476862 21.279000 40.985400 -0.000006 -0.000013 -6.525830 3.742650 -63.750700 11.754300 -0.000000 0.000003 -0.000037 -0.000434 -16.594500 -2.192510 6.469440 -0.000001 175.761000 19.971900 179.365000 -39.081100 -0.002282 -0.040193 -0.039272 0.116284 20.117000 -40.985400 0.000008 0.000006 -1.749190 3.228190 -64.105400 -11.754300 -0.000006 -0.000006 -0.006706 -0.077121 -19.712400
